<svg width="38" height="39" viewBox="0 0 38 39" fill="none" xmlns="http://www.w3.org/2000/svg">
<path d="M32.3482 0.615692H5.29882C3.8935 0.615692 2.54571 1.17143 1.55199 2.16065C0.558266 3.1499 0 4.49156 0 5.89054V32.8175C0 34.2166 0.558266 35.5583 1.55199 36.5474C2.54571 37.5366 3.8935 38.0924 5.29882 38.0924H17.6094V24.4134H12.9553V19.0777H17.6094V15.1473C17.6094 12.9198 18.2282 11.1888 19.4659 9.95911C20.7035 8.72706 22.3812 8.1087 24.5011 8.1087C26.6235 8.1087 27.9976 8.19068 28.6258 8.34527V13.0954H25.7976C24.7764 13.0954 24.0799 13.3109 23.7058 13.7419C23.3341 14.1706 23.1482 14.817 23.1482 15.6767V19.0777H28.4494L27.7435 24.4134H23.1482V38.0924H32.3482C33.7536 38.0924 35.1014 37.5366 36.095 36.5474C37.0889 35.5583 37.647 34.2166 37.647 32.8175V5.89054C37.647 4.49156 37.0889 3.1499 36.095 2.16065C35.1014 1.17143 33.7536 0.615692 32.3482 0.615692Z" fill="black"/>
</svg>
