<svg width="247" height="240" viewBox="0 0 247 240" fill="none" xmlns="http://www.w3.org/2000/svg">
<path d="M206.055 164.671C207.921 164.671 209.434 163.201 209.434 161.388V154.582C209.434 152.769 207.92 151.298 206.055 151.298V108.255C206.055 102.231 201.029 97.3477 194.829 97.3477H144.477V96.0219C144.477 93.698 142.538 91.8142 140.147 91.8142H131.563L149.284 64.2637L149.285 64.2627H207.354C208.365 64.2627 209.269 63.566 209.413 62.5935C209.455 62.3146 209.436 62.0301 209.355 61.7592C209.275 61.4883 209.135 61.2376 208.946 61.024C208.756 60.8103 208.522 60.6389 208.258 60.5214C207.994 60.4039 207.707 60.3431 207.417 60.343H39.7161C38.7052 60.343 37.8019 61.0397 37.6579 62.0122C37.615 62.2911 37.6345 62.5756 37.7151 62.8464C37.7957 63.1173 37.9355 63.3681 38.1248 63.5817C38.3142 63.7953 38.5488 63.9667 38.8125 64.0842C39.0763 64.2017 39.363 64.2626 39.6531 64.2627H131.133L113.411 91.8145H106.927C104.535 91.8145 102.596 93.6985 102.596 96.0221V97.3479H52.2425C46.0425 97.3479 41.0166 102.231 41.0166 108.256V151.298C39.1515 151.298 37.6399 152.769 37.6399 154.582V161.388C37.6399 163.201 39.1527 164.671 41.0188 164.671H48.4599C48.4437 164.939 48.4358 165.209 48.4362 165.478C48.4362 173.31 54.9689 179.657 63.0292 179.657C71.0874 179.657 77.6222 173.31 77.6222 165.478C77.6222 165.205 77.6151 164.938 77.5985 164.671H169.475C169.458 164.939 169.45 165.209 169.451 165.478C169.451 173.31 175.984 179.657 184.044 179.657C192.102 179.657 198.637 173.31 198.637 165.478C198.637 165.205 198.63 164.938 198.613 164.671H206.055ZM46.9488 131.009V113.794H60.5024C62.4026 113.794 63.9431 115.29 63.9431 117.137V127.666C63.9431 129.513 62.4026 131.01 60.5024 131.01L46.9488 131.009ZM61.7253 172.867C57.7501 172.234 54.942 168.626 55.3557 164.733L55.3626 164.671C55.7756 160.911 59.0501 157.985 63.0292 157.985C67.0062 157.985 70.2829 160.911 70.6959 164.671C70.7265 164.939 70.7416 165.208 70.7411 165.478C70.7411 170.032 66.5576 173.637 61.7253 172.867ZM80.7167 151.298H71.3818V112.753C71.3818 110.35 73.259 108.28 75.7263 108.118C76.3921 108.073 77.0603 108.167 77.6855 108.394C78.3106 108.621 78.8782 108.977 79.3498 109.436C79.7839 109.856 80.1282 110.355 80.3628 110.905C80.5973 111.456 80.7175 112.045 80.7164 112.641V151.298H80.7167ZM94.0828 151.298H84.7504V112.75C84.7504 110.348 86.6271 108.279 89.0937 108.118C89.7593 108.073 90.4273 108.167 91.0522 108.394C91.6772 108.622 92.2446 108.977 92.7159 109.436C93.1501 109.856 93.4944 110.356 93.729 110.906C93.9636 111.456 94.0839 112.046 94.0828 112.641V151.298ZM118.015 127.666C118.015 129.512 116.475 131.009 114.574 131.009H104.34C102.506 131.009 101.018 129.564 101.018 127.782V117.021C101.018 115.239 102.506 113.794 104.34 113.794H114.574C116.475 113.794 118.015 115.29 118.015 117.137V127.666ZM135.889 64.2634L135.89 64.2625H144.528L126.805 91.8142H118.168L135.889 64.2634ZM139.043 127.666C139.043 129.512 137.503 131.009 135.603 131.009H125.371C123.536 131.009 122.049 129.564 122.049 127.782V117.021C122.049 115.239 123.536 113.794 125.371 113.794H135.603C137.503 113.794 139.043 115.29 139.043 117.137V127.666ZM180.376 112.75C180.376 110.348 182.253 108.279 184.719 108.118C185.385 108.073 186.053 108.167 186.678 108.394C187.303 108.622 187.87 108.977 188.341 109.436C188.776 109.856 189.12 110.356 189.355 110.906C189.589 111.456 189.709 112.046 189.708 112.641V151.298H180.376V112.75ZM160.071 127.666C160.071 129.512 158.531 131.009 156.631 131.009H146.399C144.564 131.009 143.077 129.564 143.077 127.782V117.021C143.077 115.239 144.565 113.794 146.399 113.794H156.631C158.531 113.794 160.072 115.29 160.072 117.137V127.666H160.071ZM167.007 151.298V112.753C167.007 110.35 168.885 108.28 171.352 108.118C172.018 108.073 172.686 108.167 173.311 108.394C173.936 108.621 174.504 108.977 174.975 109.436C175.409 109.856 175.754 110.355 175.988 110.905C176.223 111.456 176.343 112.045 176.342 112.641V151.298H167.007ZM182.74 172.867C178.765 172.234 175.957 168.626 176.371 164.733L176.378 164.671C176.653 162.167 178.197 160.032 180.376 158.884C181.503 158.293 182.764 157.984 184.044 157.985C185.341 157.983 186.617 158.3 187.753 158.907C189.908 160.057 191.438 162.181 191.711 164.671C191.742 164.939 191.757 165.208 191.756 165.478C191.756 170.032 187.572 173.637 182.74 172.867ZM200.123 131.009H199.164C197.266 131.009 195.723 129.513 195.723 127.666L195.726 117.136C195.726 115.292 197.266 113.793 199.166 113.793H200.123V131.009Z" fill="#008DD2"/>
</svg>
