<svg width="41" height="41" viewBox="0 0 41 41" fill="none" xmlns="http://www.w3.org/2000/svg">
<path d="M20.3915 12.0758C15.3297 12.0758 11.1357 16.1975 11.1357 21.3316C11.1357 26.4656 15.2574 30.5873 20.3915 30.5873C25.5255 30.5873 29.6472 26.3933 29.6472 21.3316C29.6472 16.2698 25.4532 12.0758 20.3915 12.0758ZM20.3915 27.261C17.1375 27.261 14.462 24.5855 14.462 21.3316C14.462 18.0776 17.1375 15.4021 20.3915 15.4021C23.6454 15.4021 26.3209 18.0776 26.3209 21.3316C26.3209 24.5855 23.6454 27.261 20.3915 27.261Z" fill="black"/>
<path d="M30.0089 13.9559C31.167 13.9559 32.1059 13.017 32.1059 11.8589C32.1059 10.7008 31.167 9.7619 30.0089 9.7619C28.8507 9.7619 27.9119 10.7008 27.9119 11.8589C27.9119 13.017 28.8507 13.9559 30.0089 13.9559Z" fill="black"/>
<path d="M35.432 6.43561C33.552 4.48323 30.8765 3.47089 27.8394 3.47089H12.9435C6.6525 3.47089 2.4585 7.66489 2.4585 13.9559V28.7795C2.4585 31.8889 3.47084 34.5644 5.49553 36.5167C7.44791 38.3968 10.0511 39.3368 13.0158 39.3368H27.7671C30.8765 39.3368 33.4797 38.3245 35.3597 36.5167C37.3121 34.6367 38.3245 31.9612 38.3245 28.8518V13.9559C38.3245 10.9189 37.3121 8.31568 35.432 6.43561ZM35.1428 28.8518C35.1428 31.0935 34.3474 32.9012 33.0458 34.1305C31.7442 35.3598 29.9365 36.0106 27.7671 36.0106H13.0158C10.8465 36.0106 9.03874 35.3598 7.73716 34.1305C6.43557 32.8289 5.78477 31.0212 5.78477 28.7795V13.9559C5.78477 11.7866 6.43557 9.97882 7.73716 8.67724C8.96643 7.44796 10.8465 6.79716 13.0158 6.79716H27.9118C30.0811 6.79716 31.8888 7.44796 33.1904 8.74955C34.4197 10.0511 35.1428 11.8589 35.1428 13.9559V28.8518Z" fill="black"/>
</svg>
