<svg xmlns="http://www.w3.org/2000/svg" xmlns:xlink="http://www.w3.org/1999/xlink" width="158" zoomAndPan="magnify" viewBox="0 0 118.5 135.749996" height="181" preserveAspectRatio="xMidYMid meet" version="1.0"><defs><clipPath id="7311836efd"><path d="M 0 0.160156 L 118.003906 0.160156 L 118.003906 135.339844 L 0 135.339844 Z M 0 0.160156 " clip-rule="nonzero"/></clipPath><clipPath id="e284cc4205"><path d="M 0 0.160156 L 117.253906 0.160156 L 117.253906 135 L 0 135 Z M 0 0.160156 " clip-rule="nonzero"/></clipPath><clipPath id="2597739bca"><path d="M 72 106 L 84.820312 106 L 84.820312 115 L 72 115 Z M 72 106 " clip-rule="nonzero"/></clipPath><clipPath id="8788db78e8"><path d="M 32.542969 106 L 46 106 L 46 115 L 32.542969 115 Z M 32.542969 106 " clip-rule="nonzero"/></clipPath><clipPath id="eee332fd8b"><path d="M 43 20.355469 L 74 20.355469 L 74 40 L 43 40 Z M 43 20.355469 " clip-rule="nonzero"/></clipPath></defs><g clip-path="url(#7311836efd)"><path  d="M 0 0.160156 L 118.003906 0.160156 L 118.003906 135.339844 L 0 135.339844 Z M 0 0.160156 " fill-opacity="0" fill-rule="nonzero"/></g><g clip-path="url(#e284cc4205)"><path fill="#F8F8F8" d="M 117.292969 99.929688 L 117.292969 35.234375 C 117.292969 34.304688 116.792969 33.441406 115.984375 32.976562 L 59.960938 0.628906 C 59.152344 0.164062 58.15625 0.164062 57.351562 0.628906 L 1.324219 32.976562 C 0.515625 33.441406 0.0195312 34.304688 0.0195312 35.234375 L 0.0195312 99.929688 C 0.0195312 100.859375 0.515625 101.722656 1.324219 102.1875 L 57.351562 134.535156 C 58.15625 135 59.152344 135 59.960938 134.535156 L 115.984375 102.1875 C 116.792969 101.722656 117.292969 100.859375 117.292969 99.929688 " fill-opacity="1" fill-rule="nonzero"/></g><path fill="#e871c5" d="M 49.707031 101.558594 C 45.425781 101.558594 40.882812 98.960938 39.535156 98.132812 L 33.644531 96.636719 C 33.644531 96.703125 33.644531 96.769531 33.648438 96.839844 C 33.675781 98.0625 33.703125 99.375 33.738281 100.578125 C 33.753906 101.179688 33.769531 101.753906 33.789062 102.277344 C 33.824219 103.335938 34.691406 104.179688 35.753906 104.179688 L 81.5625 104.179688 C 82.625 104.179688 83.492188 103.335938 83.527344 102.277344 C 83.53125 102.128906 83.539062 101.980469 83.542969 101.824219 C 83.546875 101.707031 83.550781 101.582031 83.554688 101.460938 C 83.597656 99.972656 83.636719 98.222656 83.671875 96.636719 L 77.78125 98.132812 C 76.433594 98.960938 71.890625 101.558594 67.605469 101.558594 L 49.707031 101.558594 " fill-opacity="1" fill-rule="nonzero"/><g clip-path="url(#2597739bca)"><path fill="#e871c5" d="M 77.375 106.515625 L 72.148438 106.515625 L 78.964844 114.890625 L 84.75 114.890625 L 77.375 106.515625 " fill-opacity="1" fill-rule="nonzero"/></g><g clip-path="url(#8788db78e8)"><path fill="#e871c5" d="M 32.566406 114.890625 L 38.347656 114.890625 L 45.167969 106.515625 L 39.941406 106.515625 L 32.566406 114.890625 " fill-opacity="1" fill-rule="nonzero"/></g><path fill="#e871c5" d="M 36.0625 64.207031 C 36.082031 63.777344 36.097656 63.332031 36.117188 62.863281 L 36.382812 62.953125 C 36.625 63.039062 36.878906 63.078125 37.132812 63.078125 C 37.347656 63.078125 37.5625 63.050781 37.769531 62.988281 C 37.78125 62.988281 37.789062 62.984375 37.796875 62.980469 C 42.382812 68.105469 42.785156 77.070312 42.628906 81.90625 L 35.757812 77.203125 C 35.757812 72.179688 35.851562 69.679688 36.0625 64.207031 Z M 58.660156 60.65625 C 65.472656 60.65625 71.984375 61.265625 77 62.359375 C 74.585938 65.519531 73.085938 69.945312 72.539062 75.570312 C 72.226562 78.769531 72.304688 81.632812 72.421875 83.457031 C 72.222656 83.59375 72.050781 83.761719 71.90625 83.953125 C 70.566406 85.707031 68.652344 86.730469 66.960938 87.554688 C 66.242188 87.90625 65.445312 88.089844 64.65625 88.089844 L 52.660156 88.089844 C 51.871094 88.089844 51.074219 87.90625 50.355469 87.554688 C 48.664062 86.730469 46.746094 85.707031 45.410156 83.953125 C 45.265625 83.761719 45.09375 83.59375 44.894531 83.457031 C 45.011719 81.632812 45.089844 78.769531 44.777344 75.570312 C 44.226562 69.945312 42.730469 65.519531 40.316406 62.359375 C 45.332031 61.265625 51.84375 60.65625 58.660156 60.65625 Z M 79.515625 62.980469 C 79.527344 62.984375 79.535156 62.988281 79.542969 62.988281 C 79.753906 63.050781 79.96875 63.078125 80.179688 63.078125 C 80.433594 63.078125 80.6875 63.039062 80.933594 62.953125 L 81.199219 62.863281 C 81.21875 63.332031 81.234375 63.777344 81.253906 64.207031 C 81.464844 69.679688 81.558594 72.179688 81.558594 77.203125 L 74.6875 81.90625 C 74.523438 77.074219 74.925781 68.109375 79.515625 62.980469 Z M 76.039062 94.085938 C 74.707031 94.085938 73.625 93.003906 73.625 91.671875 C 73.625 90.335938 74.707031 89.257812 76.039062 89.257812 C 77.371094 89.257812 78.453125 90.335938 78.453125 91.671875 C 78.453125 93.003906 77.371094 94.085938 76.039062 94.085938 Z M 41.277344 94.085938 C 39.945312 94.085938 38.863281 93.003906 38.863281 91.671875 C 38.863281 90.335938 39.945312 89.257812 41.277344 89.257812 C 42.609375 89.257812 43.691406 90.335938 43.691406 91.671875 C 43.691406 93.003906 42.609375 94.085938 41.277344 94.085938 Z M 33.441406 78.449219 C 33.46875 82.234375 33.519531 89.855469 33.597656 94.214844 L 40.472656 95.960938 C 40.472656 95.960938 45.460938 99.222656 49.707031 99.222656 L 67.605469 99.222656 C 71.855469 99.222656 76.84375 95.960938 76.84375 95.960938 L 83.71875 94.214844 C 83.792969 90.046875 83.84375 82.441406 83.871094 78.453125 L 83.890625 78.4375 C 83.910156 71.53125 83.773438 69.21875 83.460938 60.910156 C 83.398438 60.496094 83.332031 60.089844 83.265625 59.695312 L 81.285156 60.367188 L 80.179688 60.742188 C 79.738281 60.617188 79.28125 60.496094 78.808594 60.382812 C 73.246094 59.007812 65.953125 58.320312 58.660156 58.320312 C 51.363281 58.320312 44.070312 59.007812 38.507812 60.382812 C 38.035156 60.496094 37.578125 60.617188 37.132812 60.742188 L 36.03125 60.367188 L 34.050781 59.695312 C 33.984375 60.089844 33.917969 60.496094 33.855469 60.910156 C 33.542969 69.21875 33.40625 71.53125 33.425781 78.4375 L 33.441406 78.449219 " fill-opacity="1" fill-rule="nonzero"/><g clip-path="url(#eee332fd8b)"><path fill="#e871c5" d="M 62.769531 22.878906 L 58.660156 30.0625 L 54.546875 22.878906 C 57.21875 22.644531 60.097656 22.644531 62.769531 22.878906 Z M 45.660156 25.289062 C 47.007812 24.308594 49.316406 23.605469 52.03125 23.183594 L 57.492188 32.71875 L 57.492188 39.253906 C 57.875 39.25 58.261719 39.246094 58.652344 39.242188 L 58.664062 39.242188 C 59.050781 39.246094 59.4375 39.25 59.824219 39.253906 L 59.824219 32.71875 L 65.285156 23.183594 C 68 23.605469 70.304688 24.308594 71.65625 25.289062 C 71.863281 25.441406 72.101562 25.515625 72.339844 25.515625 C 72.703125 25.515625 73.058594 25.347656 73.285156 25.035156 C 73.664062 24.511719 73.550781 23.785156 73.027344 23.402344 C 70.410156 21.496094 65.039062 20.355469 58.65625 20.355469 C 52.277344 20.355469 46.90625 21.496094 44.285156 23.402344 C 43.765625 23.785156 43.648438 24.511719 44.03125 25.035156 C 44.410156 25.554688 45.140625 25.671875 45.660156 25.289062 " fill-opacity="1" fill-rule="nonzero"/></g><path fill="#e871c5" d="M 37.941406 58.117188 C 38.121094 58.074219 38.296875 58.03125 38.480469 57.988281 C 40.308594 54.488281 42.035156 52.234375 44.191406 50.121094 C 44.890625 49.4375 45.765625 48.957031 46.722656 48.75 C 49.234375 48.191406 54.582031 47.128906 58.660156 47.128906 C 62.734375 47.128906 68.082031 48.191406 70.59375 48.75 C 71.550781 48.957031 72.425781 49.4375 73.125 50.121094 C 75.28125 52.234375 77.007812 54.488281 78.835938 57.988281 C 79.015625 58.027344 79.195312 58.070312 79.371094 58.113281 C 79.628906 58.179688 79.871094 58.242188 80.105469 58.304688 L 82.808594 57.382812 C 81.875 53.195312 80.484375 50.105469 77.734375 46.226562 C 76.710938 44.785156 75.210938 43.75 73.5 43.300781 C 69.230469 42.164062 63.949219 41.59375 58.660156 41.578125 C 53.367188 41.59375 48.085938 42.164062 43.8125 43.300781 C 42.105469 43.75 40.605469 44.785156 39.582031 46.226562 C 36.832031 50.105469 35.441406 53.195312 34.507812 57.382812 L 37.210938 58.304688 C 37.441406 58.242188 37.6875 58.179688 37.941406 58.117188 " fill-opacity="1" fill-rule="nonzero"/></svg>