<svg xmlns="http://www.w3.org/2000/svg" xmlns:xlink="http://www.w3.org/1999/xlink" width="136" zoomAndPan="magnify" viewBox="0 0 102 117.749996" height="157" preserveAspectRatio="xMidYMid meet" version="1.0"><defs><clipPath id="1968621fcb"><path d="M 0.109375 0 L 101.890625 0 L 101.890625 117.5 L 0.109375 117.5 Z M 0.109375 0 " clip-rule="nonzero"/></clipPath><clipPath id="d24bbb2e23"><path d="M 0.109375 0 L 101.890625 0 L 101.890625 116.753906 L 0.109375 116.753906 Z M 0.109375 0 " clip-rule="nonzero"/></clipPath><clipPath id="10ab3c6b8b"><path d="M 42 14.144531 L 56 14.144531 L 56 29 L 42 29 Z M 42 14.144531 " clip-rule="nonzero"/></clipPath><clipPath id="4c20c02403"><path d="M 33 14.144531 L 47 14.144531 L 47 29 L 33 29 Z M 33 14.144531 " clip-rule="nonzero"/></clipPath><clipPath id="d71eda5159"><path d="M 28 86 L 35 86 L 35 88.984375 L 28 88.984375 Z M 28 86 " clip-rule="nonzero"/></clipPath><clipPath id="58d4ee8662"><path d="M 66 86 L 73 86 L 73 88.984375 L 66 88.984375 Z M 66 86 " clip-rule="nonzero"/></clipPath></defs><g clip-path="url(#1968621fcb)"><path fill="#F8F8F8" d="M 0.109375 0 L 101.890625 0 L 101.890625 117.5 L 0.109375 117.5 Z M 0.109375 0 " fill-opacity="0" fill-rule="nonzero"/></g><g clip-path="url(#d24bbb2e23)"><path fill="#F8F8F8" d="M 101.863281 86.554688 L 101.863281 30.429688 C 101.863281 29.621094 101.433594 28.875 100.730469 28.46875 L 52.125 0.40625 C 51.425781 0 50.5625 0 49.859375 0.40625 L 1.253906 28.46875 C 0.554688 28.875 0.121094 29.621094 0.121094 30.429688 L 0.121094 86.554688 C 0.121094 87.367188 0.554688 88.113281 1.253906 88.515625 L 49.859375 116.582031 C 50.5625 116.984375 51.425781 116.984375 52.125 116.582031 L 100.730469 88.515625 C 101.433594 88.113281 101.863281 87.367188 101.863281 86.554688 " fill-opacity="1" fill-rule="nonzero"/></g><path fill="#008dd2" d="M 81.527344 51.523438 C 81.457031 51.105469 81.128906 50.777344 80.710938 50.714844 C 80.253906 50.644531 79.652344 50.605469 79.039062 50.601562 C 78.421875 50.605469 77.820312 50.644531 77.363281 50.714844 C 76.945312 50.777344 76.617188 51.105469 76.546875 51.523438 C 76.257812 53.207031 76.261719 57.257812 76.550781 58.925781 C 76.621094 59.335938 76.933594 59.65625 77.34375 59.730469 C 77.816406 59.816406 78.417969 59.867188 79.039062 59.875 C 79.65625 59.867188 80.257812 59.816406 80.730469 59.730469 C 81.140625 59.65625 81.453125 59.335938 81.523438 58.925781 C 81.8125 57.257812 81.816406 53.207031 81.527344 51.523438 " fill-opacity="1" fill-rule="nonzero"/><path fill="#008dd2" d="M 51.800781 49.65625 L 72.628906 49.65625 L 72.628906 65.71875 L 51.800781 65.71875 Z M 70.402344 74.546875 C 70.402344 74.679688 70.292969 74.789062 70.15625 74.789062 L 64.402344 74.789062 C 64.265625 74.789062 64.15625 74.679688 64.15625 74.546875 L 64.15625 71.519531 C 64.15625 71.382812 64.265625 71.273438 64.402344 71.273438 L 70.15625 71.273438 C 70.292969 71.273438 70.402344 71.382812 70.402344 71.519531 Z M 37.597656 74.546875 C 37.597656 74.679688 37.488281 74.789062 37.351562 74.789062 L 31.597656 74.789062 C 31.460938 74.789062 31.351562 74.679688 31.351562 74.546875 L 31.351562 71.519531 C 31.351562 71.382812 31.460938 71.273438 31.597656 71.273438 L 37.351562 71.273438 C 37.488281 71.273438 37.597656 71.382812 37.597656 71.519531 Z M 29.121094 49.65625 L 49.953125 49.65625 L 49.953125 65.71875 L 29.121094 65.71875 Z M 50.875 47.808594 L 27.273438 47.808594 L 27.273438 67.597656 L 27.351562 70.835938 L 27.5625 76.644531 L 74.191406 76.644531 L 74.402344 70.835938 L 74.480469 67.597656 L 74.480469 47.808594 L 50.875 47.808594 " fill-opacity="1" fill-rule="nonzero"/><path fill="#008dd2" d="M 27.804688 83.433594 C 27.820312 83.875 28.183594 84.226562 28.625 84.226562 L 73.128906 84.226562 C 73.570312 84.226562 73.929688 83.875 73.945312 83.433594 L 74.125 78.496094 L 27.628906 78.496094 L 27.804688 83.433594 " fill-opacity="1" fill-rule="nonzero"/><path fill="#008dd2" d="M 24.390625 50.714844 C 23.933594 50.644531 23.332031 50.605469 22.714844 50.601562 C 22.101562 50.605469 21.5 50.644531 21.042969 50.714844 C 20.625 50.777344 20.296875 51.105469 20.226562 51.523438 C 19.9375 53.207031 19.941406 57.257812 20.226562 58.925781 C 20.300781 59.335938 20.613281 59.65625 21.023438 59.730469 C 21.492188 59.816406 22.097656 59.867188 22.714844 59.875 C 23.332031 59.867188 23.9375 59.816406 24.410156 59.730469 C 24.816406 59.65625 25.132812 59.335938 25.203125 58.925781 C 25.492188 57.257812 25.492188 53.207031 25.207031 51.523438 C 25.136719 51.105469 24.808594 50.777344 24.390625 50.714844 " fill-opacity="1" fill-rule="nonzero"/><g clip-path="url(#10ab3c6b8b)"><path fill="#008dd2" d="M 53.128906 28.796875 L 55.492188 28.796875 L 44.257812 14.632812 C 43.9375 14.230469 43.355469 14.164062 42.957031 14.480469 C 42.554688 14.796875 42.488281 15.378906 42.808594 15.78125 L 53.128906 28.796875 " fill-opacity="1" fill-rule="nonzero"/></g><g clip-path="url(#4c20c02403)"><path fill="#008dd2" d="M 44.195312 28.796875 L 46.558594 28.796875 L 35.324219 14.632812 C 35.003906 14.230469 34.421875 14.164062 34.023438 14.480469 C 33.621094 14.796875 33.554688 15.378906 33.875 15.78125 L 44.195312 28.796875 " fill-opacity="1" fill-rule="nonzero"/></g><path fill="#008dd2" d="M 41.347656 31.65625 L 41.191406 34.976562 C 44.015625 34.933594 46.699219 34.921875 48.464844 34.921875 C 49.84375 34.921875 50.757812 34.929688 50.875 34.929688 C 50.992188 34.929688 51.910156 34.921875 53.289062 34.921875 C 55.054688 34.921875 57.738281 34.933594 60.5625 34.976562 L 60.40625 31.65625 C 60.378906 31.089844 59.914062 30.648438 59.347656 30.648438 L 42.402344 30.648438 C 41.839844 30.648438 41.375 31.089844 41.347656 31.65625 " fill-opacity="1" fill-rule="nonzero"/><g clip-path="url(#d71eda5159)"><path fill="#008dd2" d="M 28.773438 87.503906 C 28.773438 88.457031 29.546875 89.234375 30.503906 89.234375 L 33.210938 89.234375 C 34.167969 89.234375 34.941406 88.457031 34.941406 87.503906 L 34.941406 86.074219 L 28.773438 86.074219 L 28.773438 87.503906 " fill-opacity="1" fill-rule="nonzero"/></g><g clip-path="url(#58d4ee8662)"><path fill="#008dd2" d="M 66.808594 87.503906 C 66.808594 88.457031 67.585938 89.234375 68.539062 89.234375 L 71.25 89.234375 C 72.203125 89.234375 72.980469 88.457031 72.980469 87.503906 L 72.980469 86.074219 L 66.808594 86.074219 L 66.808594 87.503906 " fill-opacity="1" fill-rule="nonzero"/></g><path fill="#008dd2" d="M 36.929688 43.75 L 36.929688 40.832031 C 36.929688 40.519531 37.183594 40.269531 37.492188 40.269531 L 64.261719 40.269531 C 64.570312 40.269531 64.824219 40.519531 64.824219 40.832031 L 64.824219 43.75 C 64.824219 44.0625 64.570312 44.3125 64.261719 44.3125 L 37.492188 44.3125 C 37.183594 44.3125 36.929688 44.0625 36.929688 43.75 Z M 52.726562 45.957031 L 74.472656 45.957031 C 74.382812 43.503906 74.015625 40.203125 73.558594 38.386719 C 73.4375 37.914062 73.058594 37.554688 72.578125 37.464844 C 70.554688 37.074219 65.417969 36.902344 60.652344 36.828125 C 55.554688 36.746094 50.875 36.78125 50.875 36.78125 C 50.875 36.78125 46.199219 36.746094 41.101562 36.828125 C 36.335938 36.902344 31.199219 37.074219 29.171875 37.464844 C 28.695312 37.554688 28.3125 37.914062 28.195312 38.386719 C 27.738281 40.203125 27.367188 43.503906 27.28125 45.957031 L 52.726562 45.957031 " fill-opacity="1" fill-rule="nonzero"/></svg>